<?xml version="1.0" encoding="utf-8"?>
<!-- Generator: Adobe Illustrator 19.0.0, SVG Export Plug-In . SVG Version: 6.00 Build 0)  -->
<svg version="1.1" id="Layer_1" xmlns="http://www.w3.org/2000/svg" xmlns:xlink="http://www.w3.org/1999/xlink" x="0px" y="0px"
	 viewBox="0 0 1200 1000" style="enable-background:new 0 0 1200 1000;" xml:space="preserve">
<style type="text/css">
	.st0{fill:#F37759;}
	.st1{fill:#9AD08E;}
	.st2{fill:#636466;}
</style>
<g id="XMLID_2_">
	<g id="XMLID_3_">
		<path id="XMLID_14_" class="st0" d="M288.9,436.7h-55.1l101,101l-101,101h55.1l101-101L288.9,436.7z M215.1,436.7h-55.1l-101,101
			l101,101h55.1l-101-101L215.1,436.7z"/>
		<polygon id="XMLID_8_" class="st1" points="339.2,361.3 289.9,410.7 234.8,410.7 284.1,361.3 		"/>
	</g>
	<g id="XMLID_4_">
		<path id="XMLID_5_" class="st2" d="M492.1,493.4c28,0,47.3,18.1,47.3,44.5c0,26.3-19.6,44.5-48.2,44.5h-37.4v-89.1H492.1z
			 M476.4,564.4h16.2c13.9,0,23.8-10.7,23.8-26.3c0-15.8-10.4-26.6-24.8-26.6h-15.1V564.4z"/>
		<path id="XMLID_9_" class="st2" d="M615.9,554.1h-48.2c2.2,8.1,8,12.7,16.2,12.7c6,0,11.8-2.4,16.4-7l11.6,11.3
			c-7,7.6-17.3,12.1-29.9,12.1c-22.4,0-36.4-14-36.4-34.9c0-21.3,14.5-35.3,35.8-35.3C605.5,513.1,617.4,529.1,615.9,554.1z
			 M594.8,542.3c0-8.4-5.3-13.9-13.2-13.9c-7.6,0-12.9,5.6-14.3,13.9H594.8z"/>
		<path id="XMLID_15_" class="st2" d="M642,582.5l-25.8-68.6h22.7l14.8,48.5l14.9-48.5h21.9l-25.8,68.6H642z"/>
		<path id="XMLID_17_" class="st2" d="M776.3,582.5l-0.1-57.9l-21.4,49H740l-21.4-49v57.9h-20.2v-89.2h24.8l24.2,53.1l24.2-53.1
			h24.7v89.2H776.3z"/>
		<path id="XMLID_19_" class="st2" d="M850.4,589.6c-5.1,12.5-13.7,18.6-26.5,18.6c-7.6,0-13.9-2.3-20-7l9.2-15
			c3.2,2.5,5.9,3.7,9,3.7c3.9,0,6.7-1.8,8.5-5.5l1.7-3.4l-28.5-67.1h22.7l16.8,45.6l14.9-45.6H880L850.4,589.6z"/>
		<path id="XMLID_21_" class="st2" d="M965.9,582.5l-0.1-57.9l-21.4,49h-14.8l-21.4-49v57.9H888v-89.2h24.8l24.2,53.1l24.2-53.1
			h24.7v89.2H965.9z"/>
		<path id="XMLID_23_" class="st2" d="M1064.4,537.7v44.8h-21.5v-7.9c-4.5,5.9-11.7,8.9-21,8.9c-14.6,0-23.5-8.9-23.5-21.5
			c0-13,9.3-20.6,26.3-20.7h18.1v-1c0-6.7-4.5-10.8-13.4-10.8c-5.7,0-13.2,2-20.5,5.7l-6.2-14.5c10.7-5,20.4-7.8,31.8-7.8
			C1053.4,512.9,1064.3,522.2,1064.4,537.7z M1042.8,559.2v-6.1h-13.9c-6.6,0-9.9,2.3-9.9,7.4c0,5,3.6,8.1,9.7,8.1
			C1035.5,568.6,1041.4,564.8,1042.8,559.2z"/>
		<path id="XMLID_26_" class="st2" d="M1140.5,528.5l-15.8,9.5c-3.2-4.5-7.9-7.1-13.9-7.1c-8.5,0-14.4,7-14.4,17.3
			c0,10.6,5.9,17.4,14.4,17.4c6.2,0,11.1-2.5,14-7.8l16,9.4c-5.6,10.1-16.7,15.9-31.2,15.9c-21.1,0-35.4-14-35.4-34.9
			c0-21.1,14.4-35.3,35.6-35.3C1123.6,513.1,1134.6,518.7,1140.5,528.5z"/>
	</g>
</g>
</svg>
